<svg xmlns="http://www.w3.org/2000/svg" xmlns:xlink="http://www.w3.org/1999/xlink" version="1.1" id="Capa_1" x="0px" y="0px" viewBox="0 0 45.64 45.64" style="width: 1em; height: 1em; vertical-align: middle; fill: currentcolor; overflow: hidden; font-size: 200px;" xml:space="preserve" width="200" height="200">
<g>
	<g id="_Group__453_">
		
			<ellipse id="_Ellipse__517_" style="opacity:0.15;fill:#45413C;enable-background:new    ;" cx="23.919" cy="43.81" rx="15.27" ry="1.83"></ellipse>
		<path id="_Path__530_" style="fill:#FF6242;" d="M18.199,6.16l-3.77,1.77c-11,5.17-12,20.74-1.55,26.9l13.18,7.44    c3.619,2.048,8.214,0.775,10.262-2.844c0.418-0.738,0.708-1.541,0.858-2.376l2.63-14.58C42.059,9.74,28.949,1.11,18.199,6.16z"></path>
		<path style="fill:#FF866E;" d="M14.469,13.55l3.77-1.77c9-4.23,19.72,1.17,21.56,10.54c2.17-12.68-10.89-21.19-21.6-16.16    l-3.77,1.77c-6.411,3.007-9.953,9.991-8.59,16.94C6.674,19.905,9.902,15.67,14.469,13.55z"></path>
		<path style="fill:#45413C;" d="M29.756,43.75c-1.368,0-2.72-0.353-3.942-1.045l-13.18-7.44C7.64,32.322,4.826,27.064,5.1,21.196    C5.378,15.247,8.871,9.99,14.217,7.478l3.771-1.77c5.423-2.55,11.776-1.85,16.575,1.824c4.631,3.544,6.777,9.162,5.74,15.026    l-2.631,14.582c-0.16,0.892-0.468,1.744-0.915,2.533c-1.056,1.866-2.776,3.21-4.843,3.783C31.2,43.653,30.476,43.75,29.756,43.75z     M24.766,5.191c-2.158,0-4.325,0.468-6.354,1.421l0,0l-3.77,1.77c-5.009,2.354-8.283,7.282-8.543,12.86    c-0.256,5.491,2.374,10.409,7.035,13.156l13.172,7.436c1.634,0.926,3.529,1.159,5.34,0.657c1.81-0.502,3.315-1.678,4.24-3.313    c0.392-0.69,0.661-1.437,0.801-2.217l2.631-14.581c0.97-5.488-1.035-10.743-5.363-14.056C31.249,6.254,28.018,5.191,24.766,5.191z     M18.199,6.16h0.01H18.199z"></path>
		<path id="_Path_3_519_" style="fill:#6DD627;" d="M27.119,8.45l-1.39-1.3c-0.292-0.293-0.292-0.767,0-1.06l1-1    c0.334-0.245,0.407-0.714,0.162-1.048c-0.19-0.26-0.525-0.369-0.832-0.272l-1.42,0.08c-0.413,0.028-0.771-0.284-0.799-0.697    c0-0.004-0.001-0.008-0.001-0.013l-0.11-1.9c-0.011-0.42-0.36-0.751-0.779-0.74c-0.151,0.004-0.298,0.053-0.421,0.14l-4.35,3.33    c-0.214,0.167-0.503,0.202-0.75,0.09l-1.14-0.48c-0.376-0.431-0.711-0.896-1-1.39c-0.45-1-2.76,0.22-2.35,1.1    c0.209,0.647,0.33,1.32,0.36,2l-0.24,0.81c-0.08,0.261-0.293,0.46-0.56,0.52l-5.27,1.25C6.821,7.966,6.568,8.375,6.664,8.784    C6.698,8.928,6.773,9.058,6.879,9.16l1.39,1.29c0.294,0.296,0.294,0.774,0,1.07l-1,1c-0.282,0.311-0.259,0.791,0.052,1.074    c0.149,0.136,0.347,0.206,0.548,0.196l1.43-0.09c0.418-0.017,0.773,0.303,0.8,0.72l0.11,1.89c0.018,0.414,0.367,0.735,0.781,0.717    c0.156-0.007,0.306-0.062,0.429-0.157l4.4-3.23c0.218-0.167,0.509-0.201,0.76-0.09l2.53,1.09c0.391,0.152,0.832-0.042,0.984-0.433    c0.006-0.015,0.011-0.031,0.016-0.047l0.78-2.64c0.078-0.259,0.287-0.457,0.55-0.52l5.31-1.25    c0.412-0.083,0.678-0.483,0.596-0.895C27.314,8.7,27.235,8.558,27.119,8.45z"></path>
		<path style="fill:#9CEB60;" d="M16.289,3.58c0.655,0.797,1.443,1.474,2.33,2l1.85-1.39c0.327-0.254,0.798-0.196,1.053,0.131    c0.096,0.123,0.151,0.273,0.157,0.429l0.11,1.89c0.021,0.419,0.379,0.742,0.798,0.72c0.001,0,0.001,0,0.002,0l1.47-0.05    c0.419-0.026,0.78,0.292,0.806,0.711c0.013,0.21-0.061,0.416-0.206,0.569l-1,1c-0.219,0.241-0.263,0.593-0.11,0.88l3.26-0.77    c0.407-0.101,0.656-0.513,0.556-0.92c-0.035-0.141-0.11-0.27-0.216-0.37l-1.39-1.3c-0.292-0.293-0.292-0.767,0-1.06l1-1    c0.307-0.278,0.331-0.752,0.053-1.059c-0.19-0.21-0.481-0.295-0.753-0.221l-1.42,0.08c-0.413,0.028-0.771-0.284-0.799-0.697    c0-0.004-0.001-0.008-0.001-0.013l-0.11-1.9c-0.011-0.42-0.36-0.751-0.779-0.74c-0.151,0.004-0.298,0.053-0.421,0.14l-4.35,3.33    c-0.214,0.167-0.503,0.202-0.75,0.09L16.289,3.58z"></path>
		<g>
			<path id="_Path_4_515_" style="fill:#E04122;" d="M12.919,23.26c0.62,1.33,0.51,2.69-0.24,3s-1.88-0.43-2.5-1.75     s-0.51-2.69,0.25-3S12.299,21.94,12.919,23.26z"></path>
			<path style="fill:#45413C;" d="M12.315,26.831c-0.932,0-1.985-0.823-2.588-2.107c-0.467-0.995-0.577-2.074-0.288-2.816     c0.162-0.415,0.439-0.712,0.802-0.859c1.047-0.429,2.395,0.431,3.131,2c0,0.001,0,0.001,0,0.002     c0.473,1.015,0.581,2.067,0.29,2.818c-0.16,0.411-0.434,0.706-0.791,0.854C12.694,26.795,12.507,26.831,12.315,26.831z      M10.806,21.938c-0.068,0-0.131,0.012-0.188,0.035c-0.104,0.042-0.187,0.142-0.248,0.297c-0.19,0.488-0.088,1.284,0.261,2.027     c0.552,1.177,1.453,1.664,1.856,1.501c0.101-0.042,0.182-0.141,0.241-0.294c0.189-0.485,0.085-1.283-0.263-2.031l0,0     C12.009,22.497,11.285,21.938,10.806,21.938z"></path>
		</g>
		<g>
			<path id="_Path_5_507_" style="fill:#E04122;" d="M20.889,29.55c0.62,1.33,0.51,2.69-0.25,3s-1.87-0.43-2.49-1.75     s-0.51-2.69,0.24-3S20.269,28.23,20.889,29.55z"></path>
			<path style="fill:#45413C;" d="M20.263,33.123c-0.93,0-1.957-0.813-2.566-2.109c-0.467-0.995-0.578-2.075-0.289-2.818     c0.16-0.413,0.434-0.709,0.791-0.856c1.04-0.427,2.416,0.45,3.144,1.999c0,0.001,0,0.001,0,0.002     c0.473,1.014,0.58,2.066,0.287,2.815c-0.162,0.414-0.438,0.71-0.801,0.858C20.648,33.087,20.457,33.123,20.263,33.123z      M18.756,28.231c-0.065,0-0.124,0.01-0.175,0.031c-0.101,0.042-0.182,0.141-0.241,0.294c-0.19,0.49-0.087,1.287,0.262,2.031     c0.523,1.114,1.394,1.681,1.849,1.5c0.103-0.042,0.187-0.143,0.247-0.297c0.19-0.484,0.087-1.28-0.262-2.028     C19.953,28.735,19.205,28.231,18.756,28.231z"></path>
		</g>
		<g>
			<path id="_Path_6_471_" style="fill:#E04122;" d="M23.519,19.12c0.62,1.33,0.51,2.69-0.25,3s-1.87-0.43-2.49-1.75     s-0.51-2.69,0.24-3S22.899,17.8,23.519,19.12z"></path>
			<path style="fill:#45413C;" d="M22.893,22.692c-0.931,0-1.957-0.813-2.566-2.11c-0.467-0.994-0.578-2.074-0.29-2.817     c0.16-0.413,0.434-0.709,0.792-0.857c1.036-0.43,2.416,0.451,3.144,1.999c0.001,0,0.001,0.001,0.001,0.001     c0.473,1.015,0.58,2.068,0.286,2.817c-0.161,0.413-0.438,0.71-0.801,0.857C23.278,22.657,23.087,22.692,22.893,22.692z      M21.385,17.801c-0.065,0-0.124,0.01-0.175,0.031c-0.1,0.042-0.181,0.141-0.241,0.294c-0.19,0.49-0.087,1.287,0.263,2.031     c0.523,1.114,1.397,1.682,1.849,1.5c0.104-0.042,0.187-0.142,0.248-0.296c0.189-0.484,0.087-1.28-0.261-2.028l0,0     C22.584,18.305,21.835,17.801,21.385,17.801z"></path>
		</g>
		<g>
			<path id="_Path_7_451_" style="fill:#E04122;" d="M30.269,33.51c0.62,1.32,0.51,2.68-0.25,3s-1.87-0.43-2.49-1.76     s-0.51-2.68,0.24-3S29.649,32.18,30.269,33.51z"></path>
			<path style="fill:#45413C;" d="M29.638,37.085c-0.929,0-1.952-0.816-2.562-2.124c-0.47-1.008-0.579-2.057-0.293-2.805     c0.159-0.414,0.433-0.714,0.79-0.866c1.036-0.442,2.417,0.439,3.149,2.008c0.471,1.002,0.579,2.048,0.291,2.799     c-0.16,0.419-0.438,0.721-0.8,0.874C30.029,37.048,29.836,37.085,29.638,37.085z M28.142,32.177     c-0.065,0-0.125,0.011-0.176,0.033c-0.104,0.045-0.188,0.146-0.248,0.304c-0.187,0.485-0.082,1.28,0.265,2.025     c0.525,1.127,1.4,1.693,1.844,1.51c0.106-0.045,0.192-0.149,0.254-0.31c0.187-0.487,0.084-1.279-0.263-2.017     c-0.001-0.001-0.001-0.001-0.001-0.002C29.333,32.685,28.589,32.177,28.142,32.177z"></path>
		</g>
		<g>
			<path id="_Path_8_429_" style="fill:#E04122;" d="M34.159,13.3c0.62,1.32,0.51,2.68-0.25,3c-0.76,0.32-1.87-0.43-2.49-1.76     c-0.62-1.33-0.52-2.68,0.24-3C32.419,11.22,33.529,11.97,34.159,13.3z"></path>
			<path style="fill:#45413C;" d="M33.527,16.876c-0.928,0-1.951-0.817-2.561-2.125c-0.473-1.014-0.583-2.063-0.296-2.809     c0.159-0.413,0.435-0.712,0.795-0.864c1.046-0.438,2.396,0.423,3.146,2.007c0,0,0,0.001,0,0.001     c0.472,1.002,0.58,2.049,0.292,2.801c-0.161,0.418-0.438,0.72-0.8,0.873C33.919,16.838,33.725,16.876,33.527,16.876z      M32.041,11.965c-0.068,0-0.132,0.012-0.188,0.036c-0.106,0.044-0.19,0.146-0.25,0.302c-0.187,0.482-0.08,1.277,0.269,2.026     c0.511,1.095,1.396,1.701,1.843,1.51c0.107-0.045,0.193-0.149,0.255-0.309c0.187-0.487,0.084-1.278-0.263-2.016     C33.24,12.529,32.516,11.965,32.041,11.965z"></path>
		</g>
		<g>
			<path id="_Path_9_398_" style="fill:#E04122;" d="M33.219,23.77c0.62,1.32,0.51,2.68-0.25,3s-1.87-0.43-2.49-1.76     s-0.51-2.68,0.24-3S32.599,22.44,33.219,23.77z"></path>
			<path style="fill:#45413C;" d="M32.586,27.346c-0.927,0-1.95-0.816-2.56-2.125c-0.47-1.008-0.58-2.057-0.293-2.805     c0.158-0.414,0.432-0.713,0.789-0.866c1.036-0.441,2.419,0.44,3.149,2.008c0.471,1.003,0.579,2.05,0.291,2.8     c-0.16,0.418-0.438,0.72-0.8,0.873C32.979,27.309,32.784,27.346,32.586,27.346z M31.092,22.437c-0.066,0-0.125,0.011-0.177,0.033     c-0.104,0.044-0.188,0.146-0.248,0.304c-0.186,0.485-0.082,1.28,0.266,2.025c0.524,1.125,1.391,1.701,1.842,1.51     c0.108-0.045,0.193-0.149,0.255-0.31c0.188-0.486,0.084-1.278-0.263-2.017c-0.001-0.001-0.001-0.001-0.001-0.002     C32.283,22.944,31.539,22.437,31.092,22.437z"></path>
		</g>
		<path style="fill:#45413C;" d="M12.41,10.21c-0.188,0-0.367-0.106-0.453-0.287c-0.118-0.25-0.011-0.548,0.239-0.666    c0.15-0.071,0.295-0.289,0.41-0.616c0.548-1.561,0.184-4.601-0.076-5.132c-0.175-0.358-0.129-0.762,0.129-1.139    c0.433-0.634,1.397-1.091,2.142-1.037c0.458,0.038,0.807,0.268,0.982,0.646c0.305,0.657,1.985,2.847,3.511,3.401    c0.44,0.16,0.808,0.166,1.123,0.017c0.25-0.119,0.547-0.01,0.666,0.24c0.117,0.25,0.01,0.548-0.24,0.666    c-0.562,0.264-1.196,0.269-1.89,0.018c-1.88-0.684-3.702-3.112-4.077-3.92c-0.008-0.018-0.027-0.06-0.158-0.07    c-0.374-0.028-1.007,0.273-1.233,0.605c-0.049,0.071-0.063,0.123-0.056,0.136c0.41,0.837,0.73,4.168,0.121,5.903    c-0.21,0.598-0.522,0.998-0.927,1.188C12.554,10.195,12.481,10.21,12.41,10.21z"></path>
		<path style="fill:#45413C;" d="M10.957,17.528c-0.313,0-0.611-0.116-0.844-0.33c-0.246-0.226-0.389-0.534-0.403-0.868L9.6,14.449    c-0.009-0.144-0.126-0.24-0.28-0.249l-1.42,0.089c-0.336,0.019-0.667-0.099-0.916-0.325c-0.249-0.227-0.395-0.536-0.411-0.872    c-0.016-0.336,0.1-0.659,0.326-0.908l1.017-1.017c0.099-0.1,0.099-0.263-0.001-0.364L6.539,9.526    c-0.183-0.174-0.306-0.39-0.362-0.628C6.018,8.223,6.439,7.543,7.114,7.383l5.27-1.25c0.096-0.022,0.17-0.09,0.197-0.179    l0.215-0.725c-0.034-0.607-0.146-1.208-0.333-1.786c-0.147-0.307-0.091-0.718,0.18-1.101c0.448-0.633,1.402-1.094,2.133-1.021    c0.452,0.044,0.796,0.279,0.968,0.663c0.231,0.391,0.522,0.8,0.846,1.18l1.032,0.435c0.091,0.041,0.181,0.029,0.249-0.023    l4.354-3.333c0.219-0.157,0.46-0.237,0.713-0.243c0.33,0.001,0.654,0.114,0.898,0.346s0.384,0.545,0.393,0.882l0.108,1.884    c0.011,0.145,0.139,0.25,0.269,0.24l1.37-0.077c0.491-0.125,1.015,0.058,1.318,0.473c0.407,0.556,0.285,1.34-0.27,1.747    l-0.942,0.95C26.02,6.507,26.01,6.582,26.01,6.62s0.01,0.112,0.073,0.176l1.378,1.289c0,0,0,0,0,0    c0.192,0.18,0.322,0.412,0.374,0.671c0.066,0.33,0,0.666-0.186,0.946c-0.187,0.281-0.472,0.472-0.802,0.538l-5.294,1.247    c-0.087,0.021-0.159,0.089-0.186,0.177l-0.779,2.638c-0.152,0.399-0.388,0.647-0.696,0.783c-0.309,0.136-0.65,0.143-0.964,0.022    l-2.547-1.098c-0.089-0.039-0.185-0.027-0.258,0.028l-4.409,3.236c-0.196,0.153-0.443,0.243-0.704,0.254    C10.993,17.528,10.975,17.528,10.957,17.528z M9.323,13.2c0.67,0,1.232,0.522,1.275,1.188l0.11,1.894    c0.004,0.097,0.053,0.155,0.081,0.181c0.028,0.026,0.08,0.068,0.18,0.066c0.052-0.002,0.102-0.021,0.143-0.052l4.412-3.238    c0.355-0.272,0.839-0.33,1.258-0.145l2.526,1.088c0.048,0.018,0.119,0.016,0.182-0.012s0.112-0.079,0.137-0.144l0.783-2.647    c0.129-0.429,0.478-0.76,0.912-0.864l5.313-1.251c0.084-0.017,0.144-0.057,0.182-0.114s0.052-0.126,0.038-0.195    c-0.011-0.053-0.038-0.103-0.077-0.139l-1.39-1.3C25.14,7.268,25.01,6.954,25.01,6.62s0.13-0.647,0.366-0.884l1-1    c0.169-0.131,0.193-0.288,0.112-0.399c-0.064-0.087-0.174-0.124-0.277-0.09c-0.04,0.013-0.081,0.021-0.123,0.022l-1.42,0.08    c-0.678,0.047-1.28-0.475-1.327-1.162l-0.11-1.918c-0.003-0.085-0.031-0.15-0.082-0.198C23.099,1.023,23.034,1.002,22.963,1    c-0.053,0.001-0.102,0.017-0.143,0.047l-4.337,3.32c-0.358,0.28-0.842,0.337-1.26,0.148l-1.128-0.475    c-0.07-0.03-0.133-0.075-0.183-0.132c-0.395-0.451-0.75-0.945-1.055-1.467c-0.036-0.073-0.054-0.113-0.177-0.125    c-0.377-0.035-0.985,0.269-1.221,0.603c-0.064,0.09-0.073,0.146-0.068,0.159c0.246,0.747,0.375,1.464,0.407,2.189    c0.002,0.056-0.004,0.111-0.02,0.164l-0.24,0.81c-0.133,0.436-0.489,0.767-0.93,0.866L7.344,8.356    C7.204,8.39,7.117,8.53,7.151,8.669c0.011,0.049,0.037,0.094,0.074,0.129l1.385,1.286c0.5,0.502,0.5,1.299,0.015,1.788    l-1.001,1.001c-0.08,0.089-0.072,0.253,0.035,0.35c0.051,0.046,0.119,0.079,0.188,0.067l1.423-0.089    C9.286,13.2,9.305,13.2,9.323,13.2z"></path>
	</g>
</g>















</svg>