<svg height="48" viewBox="-67 0 512 512.00026" width="48" xmlns="http://www.w3.org/2000/svg" style="width: 1em; height: 1em; vertical-align: middle; fill: currentcolor; overflow: hidden; font-size: 48px;"><path d="m0 190.5625c0 114.179688 97.503906 226.4375 152.28125 280.492188 20.097656 19.832031 52.453125 19.832031 72.550781 0 54.773438-54.054688 152.28125-166.3125 152.28125-280.492188 0-79.390625-94.277343-113.101562-188.558593-113.101562-94.277344 0-188.554688 33.710937-188.554688 113.101562zm0 0" fill="#ff646f"></path><path d="m188.554688 77.460938c-5.027344 0-10.054688.101562-15.070313.292968 88.996094 3.4375 173.484375 37.652344 173.484375 112.808594 0 114.183594-97.503906 226.4375-152.28125 280.492188-6.152344 6.074218-13.457031 10.273437-21.203125 12.628906 17.558594 5.335937 37.402344 1.132812 51.34375-12.628906 54.777344-54.054688 152.28125-166.308594 152.28125-280.492188.003906-79.390625-94.273437-113.101562-188.554687-113.101562zm0 0" fill="#ff4755"></path><path d="m187.507812 73.75c-4.246093 0-7.691406-3.445312-7.691406-7.691406 0-45.6875 19.269532-66.058594 62.484375-66.058594 4.246094 0 7.691407 3.441406 7.691407 7.691406s-3.441407 7.691406-7.691407 7.691406c-34.773437 0-47.101562 13.261719-47.101562 50.675782 0 4.246094-3.441407 7.691406-7.691407 7.691406zm0 0" fill="#eab765"></path><path d="m187.5 57.058594s.003906.011718.007812.015625h-.007812s-.007812 0-.011719 0c.003907-.003907.011719-.015625.011719-.015625-31.460938-4.664063-57.601562-4.859375-79.296875-2.15625-11.222656 1.394531-21.253906 3.566406-30.21875 6.292968-39.089844 11.890626-57.894531 34.359376-66.464844 49.375-4.132812 7.242188.226563 16.46875 8.316407 17.726563 24.378906 3.78125 73.136718 9.117187 103.027343-2.621094 6.753907-2.65625 13.035157-6.292969 18.8125-10.515625 8.347657 18.167969 27.667969 36.347656 38.363281 45.507813 4.324219 3.703125 10.597657 3.703125 14.921876 0 10.691406-9.160157 30.011718-27.339844 38.359374-45.507813 5.78125 4.222656 12.058594 7.859375 18.816407 10.515625 29.890625 11.738281 78.648437 6.402344 103.027343 2.621094 8.089844-1.257813 12.445313-10.484375 8.316407-17.726563-14.335938-25.125-57.320313-71.09375-175.980469-53.511718zm0 0" fill="#d2f29f"></path><path d="m160.097656 60.671875h.007813c-.003907-.007813-.007813-.019531-.007813-.019531s-.007812.011718-.011718.019531zm0 0" fill="#d2f29f"></path><path d="m363.480469 110.570312c-14.277344-25.019531-56.972657-70.707031-174.519531-53.71875 96.007812-6.054687 134.078124 34.472657 147.113281 57.316407 3.824219 6.699219.375 15.078125-6.566407 17.296875 9.855469-.898438 18.738282-2.097656 25.65625-3.167969 8.089844-1.257813 12.445313-10.484375 8.316407-17.726563zm0 0" fill="#bced6b"></path><g fill="#fff5f5"><path d="m122.910156 203.292969c-4.085937-1.164063-6.457031-5.417969-5.292968-9.503907l3.542968-12.449218c1.160156-4.085938 5.417969-6.457032 9.503906-5.292969 4.085938 1.164063 6.453126 5.417969 5.292969 9.503906l-3.542969 12.449219c-1.167968 4.09375-5.429687 6.453125-9.503906 5.292969zm0 0"></path><path d="m244.640625 201.597656-3.542969-12.453125c-1.160156-4.085937 1.207032-8.339843 5.292969-9.503906 4.082031-1.160156 8.34375 1.210937 9.503906 5.292969l3.542969 12.453125c1.164062 4.085937-1.207031 8.339843-5.292969 9.503906-4.074219 1.160156-8.335937-1.203125-9.503906-5.292969zm0 0"></path><path d="m318.785156 171.792969-7.089844-9.019531c-2.621093-3.339844-2.042968-8.175782 1.296876-10.800782 3.34375-2.625 8.175781-2.042968 10.800781 1.296875l7.085937 9.019531c2.625 3.339844 2.046875 8.175782-1.292968 10.800782-3.34375 2.621094-8.175782 2.042968-10.800782-1.296875zm0 0"></path><path d="m44.386719 172.175781c-3.339844-2.625-3.921875-7.460937-1.296875-10.800781l7.089844-9.019531c2.621093-3.34375 7.457031-3.921875 10.796874-1.296875 3.339844 2.625 3.921876 7.460937 1.296876 10.800781l-7.085938 9.019531c-2.625 3.339844-7.460938 3.917969-10.800781 1.296875zm0 0"></path><path d="m185.292969 274.386719c-4.226563-.441407-7.296875-4.222657-6.855469-8.445313l1.335938-12.875c.4375-4.226562 4.226562-7.296875 8.445312-6.855468 4.222656.4375 7.292969 4.21875 6.855469 8.441406l-1.335938 12.875c-.441406 4.226562-4.222656 7.296875-8.445312 6.859375zm0 0"></path><path d="m49.84375 263.03125c-3.339844-2.625-3.921875-7.460938-1.296875-10.800781l7.089844-9.019531c2.621093-3.339844 7.457031-3.917969 10.796875-1.296876 3.339844 2.625 3.921875 7.460938 1.296875 10.800782l-7.085938 9.019531c-2.625 3.339844-7.460937 3.917969-10.800781 1.296875zm0 0"></path><path d="m320.070312 253.855469-7.085937-9.019531c-2.625-3.339844-2.042969-8.175782 1.296875-10.800782 3.339844-2.621094 8.175781-2.042968 10.800781 1.296875l7.085938 9.023438c2.625 3.339843 2.042969 8.171875-1.296875 10.796875-3.332032 2.617187-8.171875 2.050781-10.800782-1.296875zm0 0"></path></g><path d="m294.628906 278.730469c-13.089844 0-27.542968 7.398437-39.964844 17.132812-16.871093 13.222657-32.957031 20.332031-47.820312 21.125-10.898438.582031-16.792969-2.019531-23.621094-5.027343-7.5625-3.335938-16.136718-7.117188-31.585937-6.289063-20.882813 1.113281-41.191407 11.027344-55.714844 27.191406-.265625.292969-.539063.585938-.820313.878907-9.953124 10.253906-37.324218 8.613281-53.625-4.144532-2.648437-2.078125-6.527343-.148437-6.527343 3.21875v76.625c0 12.847656 10.632812 23.214844 23.574219 22.78125 12.382812-.414062 22.015624-10.992187 22.015624-23.378906v-6.039062c0-.074219 0-.144532 0-.214844.007813-.808594.109376-1.574219.289063-2.289063 2.457031 3.195313 4.980469 6.421875 7.585937 9.683594 7.710938 9.648437 11.9375 21.621094 11.9375 33.972656v45.25c0 15.675781 15.828126 27.65625 32.375 20.835938 8.074219-3.328125 13.214844-11.355469 13.214844-20.089844v-16.195313c.621094.613282 1.226563 1.226563 1.855469 1.84375 10.921875 10.78125 25.394531 16.714844 40.757813 16.714844 15.363281 0 29.839843-5.933594 40.761718-16.714844 20.871094-20.59375 51.65625-53.375 79.808594-92.578124 15.222656-21.199219 28.15625-42.132813 38.773438-62.679688 2.097656-4.058594 1.652343-8.945312-1.074219-12.613281-11.75-15.808594-28.617188-29-52.195313-29zm0 0" fill="#855151"></path><path d="m346.824219 307.730469c-5.707031-7.679688-12.625-14.734375-20.929688-19.96875-31.75 77.03125-92.269531 144.867187-131.207031 183.292969-9.183594 9.0625-20.925781 13.96875-32.890625 14.75 8.167969 4.25 17.292969 6.511718 26.757813 6.511718 15.363281 0 29.839843-5.9375 40.761718-16.714844 20.871094-20.59375 51.65625-53.375 79.808594-92.578124 15.222656-21.199219 28.15625-42.132813 38.773438-62.679688 2.09375-4.058594 1.648437-8.945312-1.074219-12.613281zm0 0" fill="#704444"></path></svg>